<?xml version="1.0" standalone="no"?>
<!DOCTYPE svg PUBLIC "-//W3C//DTD SVG 20010904//EN"
 "http://www.w3.org/TR/2001/REC-SVG-20010904/DTD/svg10.dtd">
<svg version="1.0" xmlns="http://www.w3.org/2000/svg"
 width="500.000000pt" height="500.000000pt" viewBox="0 0 500.000000 500.000000"
 preserveAspectRatio="xMidYMid meet">

<g transform="translate(0.000000,500.000000) scale(0.100000,-0.100000)"
fill="#000000" stroke="none">
<path d="M0 2500 l0 -2500 2500 0 2500 0 0 2500 0 2500 -2500 0 -2500 0 0
-2500z m2164 878 c-21 -29 -49 -69 -63 -88 -14 -19 -28 -39 -31 -43 -4 -4 -49
13 -101 38 -112 54 -217 82 -339 91 l-90 7 0 -302 0 -301 -197 2 -198 3 -3
299 -2 299 -86 -7 c-119 -10 -223 -38 -334 -92 l-94 -45 -18 23 c-9 13 -40 56
-68 96 l-51 72 856 0 857 0 -38 -52z m742 -273 l142 -320 -221 -3 c-121 -1
-224 1 -228 5 -3 5 -56 121 -115 258 l-109 250 -3 -257 -2 -258 -24 0 -23 0
-7 253 c-3 138 -9 285 -12 325 l-7 72 233 -2 233 -3 143 -320z m1480 273 c-3
-29 -9 -176 -13 -325 l-6 -273 -198 0 -199 0 -2 261 -3 261 -105 -261 c-102
-253 -106 -261 -132 -261 -16 0 -28 3 -28 7 0 4 59 150 132 325 l132 318 214
0 215 0 -7 -52z m-3181 -818 c3 -5 -3 -10 -14 -10 -18 0 -21 -6 -21 -50 0 -27
-4 -50 -10 -50 -5 0 -10 23 -10 50 0 44 -3 50 -21 50 -11 0 -17 5 -14 10 3 6
24 10 45 10 21 0 42 -4 45 -10z m198 -88 c26 -3 27 -2 27 42 0 25 5 48 10 51
15 9 13 -88 -2 -103 -17 -17 -54 -15 -72 4 -16 16 -22 84 -8 98 4 4 9 -14 12
-41 5 -44 8 -48 33 -51z m287 88 c0 -5 -7 -10 -15 -10 -11 0 -15 -12 -15 -50
0 -27 -4 -50 -10 -50 -5 0 -10 23 -10 50 0 44 -3 50 -21 50 -11 0 -17 5 -14
10 3 6 24 10 46 10 21 0 39 -4 39 -10z m248 -13 c17 -13 15 -62 -4 -81 -21
-22 -60 -20 -84 4 -23 23 -24 33 -9 61 18 35 63 42 97 16z m236 13 c18 -7 26
-17 26 -34 0 -14 -5 -28 -10 -31 -7 -4 -7 -13 0 -26 7 -12 7 -19 1 -19 -6 0
-15 9 -21 20 -6 11 -17 20 -25 20 -8 0 -15 -9 -15 -20 0 -11 -4 -20 -10 -20
-6 0 -10 27 -10 60 0 66 8 72 64 50z m401 -30 l18 -41 21 38 c12 20 26 36 31
35 14 -2 19 -112 5 -112 -5 0 -10 19 -10 43 l-1 42 -20 -38 c-22 -42 -30 -42
-50 5 l-14 33 -6 -45 c-6 -43 -6 -42 -7 18 -1 34 2 62 6 62 5 0 17 -18 27 -40z
m325 -19 c13 -28 20 -54 16 -58 -4 -4 -12 0 -17 10 -13 22 -55 22 -68 0 -5
-10 -12 -15 -16 -12 -8 9 43 122 53 115 4 -2 19 -27 32 -55z m216 -41 c13 0
24 -4 24 -10 0 -5 -13 -10 -30 -10 l-30 0 2 63 2 62 3 -52 c4 -49 6 -53 29
-53z m259 40 c24 -56 24 -79 1 -47 -7 9 -23 17 -36 17 -13 0 -29 -8 -36 -17
-23 -33 -22 -8 4 50 14 32 29 56 34 55 6 -2 20 -28 33 -58z m196 7 l12 -42 14
40 c20 59 30 63 44 16 15 -50 26 -52 35 -6 6 35 24 59 24 32 0 -28 -33 -108
-43 -104 -6 2 -16 21 -22 43 l-12 39 -12 -28 c-6 -16 -11 -35 -11 -43 0 -34
-28 -9 -43 39 -20 62 -21 70 -7 62 5 -3 15 -25 21 -48z m299 -7 c0 -33 -4 -60
-10 -60 -11 0 -14 103 -3 113 12 12 13 8 13 -53z m-2330 -392 c1 -147 16 -469
26 -535 l6 -43 -227 0 -227 0 6 38 c3 20 9 174 12 342 3 168 7 311 9 318 3 9
52 12 200 12 l195 0 0 -132z m830 -45 c0 -169 13 -430 25 -500 l6 -33 -53 0
-54 0 8 63 c4 34 10 194 14 355 l7 292 23 0 24 0 0 -177z m965 66 l48 -111 46
111 c45 111 45 111 79 111 18 0 32 -4 30 -8 -1 -4 -70 -175 -152 -380 l-150
-372 -36 0 c-30 0 -39 5 -50 28 -10 21 -214 490 -301 690 l-18 42 228 0 227 0
49 -111z m1039 -196 c4 -170 9 -329 12 -355 l6 -48 -224 0 -223 0 6 68 c4 37
11 196 15 355 l7 287 197 0 197 0 7 -307z"/>
<path d="M1866 2534 c-29 -29 -12 -64 31 -64 19 0 43 25 43 44 0 10 -32 36
-45 36 -7 0 -21 -7 -29 -16z"/>
<path d="M2130 2525 c0 -22 4 -26 23 -23 14 2 22 10 22 23 0 13 -8 21 -22 23
-19 3 -23 -1 -23 -23z"/>
<path d="M2856 2525 c-10 -26 -7 -35 9 -35 17 0 19 18 6 38 -7 11 -10 10 -15
-3z"/>
<path d="M3332 2523 c-16 -29 -15 -33 8 -33 22 0 23 4 11 35 -8 19 -8 19 -19
-2z"/>
</g>
</svg>
